# MagicaVoxel @ Ephtracy

# group
g char1

# material
mtllib char1.mtl
usemtl palette

# normals
vn -1 0 0
vn 1 0 0
vn 0 0 1
vn 0 0 -1
vn 0 -1 0
vn 0 1 0

# texcoords
vt 0.705078 0.5
vt 0.736328 0.5
vt 0.986328 0.5

# verts
v -10 1 5
v -10 1 2
v -10 3 5
v -10 3 2
v -10 5 5
v -10 5 2
v -10 7 5
v -10 7 2
v -10 9 5
v -10 9 2
v -10 11 5
v -10 11 2
v -10 13 5
v -10 13 2
v -10 15 5
v -10 15 2
v -10 17 7
v -10 17 -0
v -10 28 7
v -10 28 -0
v -10 30 7
v -10 30 -0
v -10 34 7
v -10 34 -0
v -10 37 7
v -10 37 -0
v -7 20 7
v -7 20 6
v -7 24 7
v -7 24 6
v -3 1 5
v -3 1 2
v -3 3 5
v -3 3 2
v -3 5 5
v -3 5 2
v -3 7 5
v -3 7 2
v -3 9 5
v -3 9 2
v -3 11 5
v -3 11 2
v -3 13 5
v -3 13 2
v -3 15 5
v -3 15 2
v -3 20 7
v -3 20 6
v -3 24 7
v -3 24 6
v -8 1 5
v -8 1 2
v -8 3 5
v -8 3 2
v -8 5 5
v -8 5 2
v -8 7 5
v -8 7 2
v -8 9 5
v -8 9 2
v -8 11 5
v -8 11 2
v -8 13 5
v -8 13 2
v -8 15 5
v -8 15 2
v -8 20 7
v -8 20 6
v -8 24 7
v -8 24 6
v -4 20 7
v -4 20 6
v -4 24 7
v -4 24 6
v -1 1 5
v -1 1 2
v -1 3 5
v -1 3 2
v -1 5 5
v -1 5 2
v -1 7 5
v -1 7 2
v -1 9 5
v -1 9 2
v -1 11 5
v -1 11 2
v -1 13 5
v -1 13 2
v -1 15 5
v -1 15 2
v -1 17 7
v -1 17 -0
v -1 28 7
v -1 28 -0
v -1 30 7
v -1 30 -0
v -1 34 7
v -1 34 -0
v -1 37 7
v -1 37 -0
v -10 17 7
v -10 28 7
v -10 30 7
v -10 34 7
v -10 37 7
v -8 20 7
v -8 24 7
v -7 20 7
v -7 24 7
v -4 20 7
v -4 24 7
v -3 20 7
v -3 24 7
v -1 17 7
v -1 28 7
v -1 30 7
v -1 34 7
v -1 37 7
v -8 20 6
v -8 24 6
v -7 20 6
v -7 24 6
v -4 20 6
v -4 24 6
v -3 20 6
v -3 24 6
v -10 1 5
v -10 3 5
v -10 5 5
v -10 7 5
v -10 9 5
v -10 11 5
v -10 13 5
v -10 15 5
v -8 1 5
v -8 3 5
v -8 5 5
v -8 7 5
v -8 9 5
v -8 11 5
v -8 13 5
v -8 15 5
v -3 1 5
v -3 3 5
v -3 5 5
v -3 7 5
v -3 9 5
v -3 11 5
v -3 13 5
v -3 15 5
v -1 1 5
v -1 3 5
v -1 5 5
v -1 7 5
v -1 9 5
v -1 11 5
v -1 13 5
v -1 15 5
v -10 1 2
v -10 3 2
v -10 5 2
v -10 7 2
v -10 9 2
v -10 11 2
v -10 13 2
v -10 15 2
v -8 1 2
v -8 3 2
v -8 5 2
v -8 7 2
v -8 9 2
v -8 11 2
v -8 13 2
v -8 15 2
v -3 1 2
v -3 3 2
v -3 5 2
v -3 7 2
v -3 9 2
v -3 11 2
v -3 13 2
v -3 15 2
v -1 1 2
v -1 3 2
v -1 5 2
v -1 7 2
v -1 9 2
v -1 11 2
v -1 13 2
v -1 15 2
v -10 17 -0
v -10 28 -0
v -10 30 -0
v -10 34 -0
v -10 37 -0
v -1 17 -0
v -1 28 -0
v -1 30 -0
v -1 34 -0
v -1 37 -0
v -10 1 5
v -8 1 5
v -3 1 5
v -1 1 5
v -10 1 2
v -8 1 2
v -3 1 2
v -1 1 2
v -10 5 5
v -8 5 5
v -3 5 5
v -1 5 5
v -10 5 2
v -8 5 2
v -3 5 2
v -1 5 2
v -10 9 5
v -8 9 5
v -3 9 5
v -1 9 5
v -10 9 2
v -8 9 2
v -3 9 2
v -1 9 2
v -10 13 5
v -8 13 5
v -3 13 5
v -1 13 5
v -10 13 2
v -8 13 2
v -3 13 2
v -1 13 2
v -10 17 7
v -1 17 7
v -10 17 -0
v -1 17 -0
v -8 24 7
v -7 24 7
v -4 24 7
v -3 24 7
v -8 24 6
v -7 24 6
v -4 24 6
v -3 24 6
v -10 30 7
v -1 30 7
v -10 30 -0
v -1 30 -0
v -10 3 5
v -8 3 5
v -3 3 5
v -1 3 5
v -10 3 2
v -8 3 2
v -3 3 2
v -1 3 2
v -10 7 5
v -8 7 5
v -3 7 5
v -1 7 5
v -10 7 2
v -8 7 2
v -3 7 2
v -1 7 2
v -10 11 5
v -8 11 5
v -3 11 5
v -1 11 5
v -10 11 2
v -8 11 2
v -3 11 2
v -1 11 2
v -10 15 5
v -8 15 5
v -3 15 5
v -1 15 5
v -10 15 2
v -8 15 2
v -3 15 2
v -1 15 2
v -8 20 7
v -7 20 7
v -4 20 7
v -3 20 7
v -8 20 6
v -7 20 6
v -4 20 6
v -3 20 6
v -10 28 7
v -1 28 7
v -10 28 -0
v -1 28 -0
v -10 37 7
v -1 37 7
v -8 37 5
v -7 37 5
v -4 37 5
v -3 37 5
v -8 37 2
v -7 37 2
v -4 37 2
v -3 37 2
v -10 37 -0
v -1 37 -0

# faces
f 3/2/1 2/2/1 1/2/1
f 4/2/1 2/2/1 3/2/1
f 7/2/1 6/2/1 5/2/1
f 8/2/1 6/2/1 7/2/1
f 11/2/1 10/2/1 9/2/1
f 12/2/1 10/2/1 11/2/1
f 15/2/1 14/2/1 13/2/1
f 16/2/1 14/2/1 15/2/1
f 19/2/1 18/2/1 17/2/1
f 20/2/1 18/2/1 19/2/1
f 23/2/1 22/2/1 21/2/1
f 24/2/1 22/2/1 23/2/1
f 25/3/1 24/3/1 23/3/1
f 26/3/1 24/3/1 25/3/1
f 29/2/1 28/2/1 27/2/1
f 30/2/1 28/2/1 29/2/1
f 33/2/1 32/2/1 31/2/1
f 34/2/1 32/2/1 33/2/1
f 37/2/1 36/2/1 35/2/1
f 38/2/1 36/2/1 37/2/1
f 41/2/1 40/2/1 39/2/1
f 42/2/1 40/2/1 41/2/1
f 45/2/1 44/2/1 43/2/1
f 46/2/1 44/2/1 45/2/1
f 49/2/1 48/2/1 47/2/1
f 50/2/1 48/2/1 49/2/1
f 51/2/2 52/2/2 53/2/2
f 53/2/2 52/2/2 54/2/2
f 55/2/2 56/2/2 57/2/2
f 57/2/2 56/2/2 58/2/2
f 59/2/2 60/2/2 61/2/2
f 61/2/2 60/2/2 62/2/2
f 63/2/2 64/2/2 65/2/2
f 65/2/2 64/2/2 66/2/2
f 67/2/2 68/2/2 69/2/2
f 69/2/2 68/2/2 70/2/2
f 71/2/2 72/2/2 73/2/2
f 73/2/2 72/2/2 74/2/2
f 75/2/2 76/2/2 77/2/2
f 77/2/2 76/2/2 78/2/2
f 79/2/2 80/2/2 81/2/2
f 81/2/2 80/2/2 82/2/2
f 83/2/2 84/2/2 85/2/2
f 85/2/2 84/2/2 86/2/2
f 87/2/2 88/2/2 89/2/2
f 89/2/2 88/2/2 90/2/2
f 91/2/2 92/2/2 93/2/2
f 93/2/2 92/2/2 94/2/2
f 95/2/2 96/2/2 97/2/2
f 97/2/2 96/2/2 98/2/2
f 97/3/2 98/3/2 99/3/2
f 99/3/2 98/3/2 100/3/2
f 106/2/3 102/2/3 101/2/3
f 107/2/3 102/2/3 106/2/3
f 108/2/3 106/2/3 101/2/3
f 109/2/3 102/2/3 107/2/3
f 110/2/3 108/2/3 101/2/3
f 110/2/3 109/2/3 108/2/3
f 111/2/3 102/2/3 109/2/3
f 111/2/3 109/2/3 110/2/3
f 112/2/3 110/2/3 101/2/3
f 113/2/3 102/2/3 111/2/3
f 114/2/3 112/2/3 101/2/3
f 114/2/3 113/2/3 112/2/3
f 115/2/3 102/2/3 113/2/3
f 115/2/3 113/2/3 114/2/3
f 116/2/3 104/2/3 103/2/3
f 117/3/3 105/3/3 104/3/3
f 117/2/3 104/2/3 116/2/3
f 118/3/3 105/3/3 117/3/3
f 121/2/3 120/2/3 119/2/3
f 122/2/3 120/2/3 121/2/3
f 125/2/3 124/2/3 123/2/3
f 126/2/3 124/2/3 125/2/3
f 135/2/3 128/2/3 127/2/3
f 136/2/3 128/2/3 135/2/3
f 137/2/3 130/2/3 129/2/3
f 138/2/3 130/2/3 137/2/3
f 139/2/3 132/2/3 131/2/3
f 140/2/3 132/2/3 139/2/3
f 141/2/3 134/2/3 133/2/3
f 142/2/3 134/2/3 141/2/3
f 151/2/3 144/2/3 143/2/3
f 152/2/3 144/2/3 151/2/3
f 153/2/3 146/2/3 145/2/3
f 154/2/3 146/2/3 153/2/3
f 155/2/3 148/2/3 147/2/3
f 156/2/3 148/2/3 155/2/3
f 157/2/3 150/2/3 149/2/3
f 158/2/3 150/2/3 157/2/3
f 159/2/4 160/2/4 167/2/4
f 167/2/4 160/2/4 168/2/4
f 161/2/4 162/2/4 169/2/4
f 169/2/4 162/2/4 170/2/4
f 163/2/4 164/2/4 171/2/4
f 171/2/4 164/2/4 172/2/4
f 165/2/4 166/2/4 173/2/4
f 173/2/4 166/2/4 174/2/4
f 175/2/4 176/2/4 183/2/4
f 183/2/4 176/2/4 184/2/4
f 177/2/4 178/2/4 185/2/4
f 185/2/4 178/2/4 186/2/4
f 179/2/4 180/2/4 187/2/4
f 187/2/4 180/2/4 188/2/4
f 181/2/4 182/2/4 189/2/4
f 189/2/4 182/2/4 190/2/4
f 191/2/4 192/2/4 196/2/4
f 196/2/4 192/2/4 197/2/4
f 193/2/4 194/2/4 198/2/4
f 194/3/4 195/3/4 199/3/4
f 198/2/4 194/2/4 199/2/4
f 199/3/4 195/3/4 200/3/4
f 205/2/5 202/2/5 201/2/5
f 206/2/5 202/2/5 205/2/5
f 207/2/5 204/2/5 203/2/5
f 208/2/5 204/2/5 207/2/5
f 213/2/5 210/2/5 209/2/5
f 214/2/5 210/2/5 213/2/5
f 215/2/5 212/2/5 211/2/5
f 216/2/5 212/2/5 215/2/5
f 221/2/5 218/2/5 217/2/5
f 222/2/5 218/2/5 221/2/5
f 223/2/5 220/2/5 219/2/5
f 224/2/5 220/2/5 223/2/5
f 229/2/5 226/2/5 225/2/5
f 230/2/5 226/2/5 229/2/5
f 231/2/5 228/2/5 227/2/5
f 232/2/5 228/2/5 231/2/5
f 235/2/5 234/2/5 233/2/5
f 236/2/5 234/2/5 235/2/5
f 241/2/5 238/2/5 237/2/5
f 242/2/5 238/2/5 241/2/5
f 243/2/5 240/2/5 239/2/5
f 244/2/5 240/2/5 243/2/5
f 247/2/5 246/2/5 245/2/5
f 248/2/5 246/2/5 247/2/5
f 249/2/6 250/2/6 253/2/6
f 253/2/6 250/2/6 254/2/6
f 251/2/6 252/2/6 255/2/6
f 255/2/6 252/2/6 256/2/6
f 257/2/6 258/2/6 261/2/6
f 261/2/6 258/2/6 262/2/6
f 259/2/6 260/2/6 263/2/6
f 263/2/6 260/2/6 264/2/6
f 265/2/6 266/2/6 269/2/6
f 269/2/6 266/2/6 270/2/6
f 267/2/6 268/2/6 271/2/6
f 271/2/6 268/2/6 272/2/6
f 273/2/6 274/2/6 277/2/6
f 277/2/6 274/2/6 278/2/6
f 275/2/6 276/2/6 279/2/6
f 279/2/6 276/2/6 280/2/6
f 281/2/6 282/2/6 285/2/6
f 285/2/6 282/2/6 286/2/6
f 283/2/6 284/2/6 287/2/6
f 287/2/6 284/2/6 288/2/6
f 289/2/6 290/2/6 291/2/6
f 291/2/6 290/2/6 292/2/6
f 293/3/6 294/3/6 295/3/6
f 295/3/6 294/3/6 296/3/6
f 296/3/6 294/3/6 297/3/6
f 297/3/6 294/3/6 298/3/6
f 293/3/6 295/3/6 299/3/6
f 295/1/6 296/1/6 299/1/6
f 296/3/6 297/3/6 300/3/6
f 299/1/6 296/1/6 300/1/6
f 297/1/6 298/1/6 301/1/6
f 300/3/6 297/3/6 301/3/6
f 298/3/6 294/3/6 302/3/6
f 301/1/6 298/1/6 302/1/6
f 300/3/6 301/3/6 303/3/6
f 299/3/6 300/3/6 303/3/6
f 301/3/6 302/3/6 303/3/6
f 293/3/6 299/3/6 303/3/6
f 302/3/6 294/3/6 304/3/6
f 303/3/6 302/3/6 304/3/6
